<svg xmlns="http://www.w3.org/2000/svg" xmlns:xlink="http://www.w3.org/1999/xlink" width="500" zoomAndPan="magnify" viewBox="0 0 375 374.999991" height="500" preserveAspectRatio="xMidYMid meet" version="1.0"><defs><g/><clipPath id="86e0f8a2d1"><path d="M 59.167969 197.488281 L 317.90625 197.488281 L 317.90625 255.988281 L 59.167969 255.988281 Z M 59.167969 197.488281 " clip-rule="nonzero"/></clipPath><clipPath id="7a2ac9e38d"><path d="M 71.164062 197.488281 L 305.648438 197.488281 C 308.832031 197.488281 311.882812 198.75 314.132812 201 C 316.382812 203.25 317.648438 206.304688 317.648438 209.484375 L 317.648438 243.648438 C 317.648438 246.832031 316.382812 249.882812 314.132812 252.132812 C 311.882812 254.382812 308.832031 255.648438 305.648438 255.648438 L 71.164062 255.648438 C 67.984375 255.648438 64.929688 254.382812 62.679688 252.132812 C 60.429688 249.882812 59.167969 246.832031 59.167969 243.648438 L 59.167969 209.484375 C 59.167969 206.304688 60.429688 203.25 62.679688 201 C 64.929688 198.75 67.984375 197.488281 71.164062 197.488281 Z M 71.164062 197.488281 " clip-rule="nonzero"/></clipPath><clipPath id="968e5492a5"><path d="M 132 78.894531 L 257.847656 78.894531 L 257.847656 158 L 132 158 Z M 132 78.894531 " clip-rule="nonzero"/></clipPath><clipPath id="09dfd5912d"><path d="M 150 161 L 179 161 L 179 189.144531 L 150 189.144531 Z M 150 161 " clip-rule="nonzero"/></clipPath><clipPath id="719e2c068e"><path d="M 189 161 L 218 161 L 218 189.144531 L 189 189.144531 Z M 189 161 " clip-rule="nonzero"/></clipPath><clipPath id="eb1aea03d2"><path d="M 74.097656 126 L 147 126 L 147 136 L 74.097656 136 Z M 74.097656 126 " clip-rule="nonzero"/></clipPath></defs><g clip-path="url(#86e0f8a2d1)"><g clip-path="url(#7a2ac9e38d)"><path stroke-linecap="butt" transform="matrix(0.75, 0, 0, 0.75, 59.166795, 197.486793)" fill="none" stroke-linejoin="miter" d="M 15.996358 0.00198482 L 328.642212 0.00198482 C 332.887004 0.00198482 336.954712 1.684277 339.954712 4.684277 C 342.954713 7.684277 344.642213 11.757194 344.642213 15.996778 L 344.642213 61.548864 C 344.642213 65.793656 342.954713 69.861364 339.954712 72.861365 C 336.954712 75.861365 332.887004 77.548865 328.642212 77.548865 L 15.996358 77.548865 C 11.756774 77.548865 7.683857 75.861365 4.683857 72.861365 C 1.683857 69.861364 0.00156498 65.793656 0.00156498 61.548864 L 0.00156498 15.996778 C 0.00156498 11.757194 1.683857 7.684277 4.683857 4.684277 C 7.683857 1.684277 11.756774 0.00198482 15.996358 0.00198482 Z M 15.996358 0.00198482 " stroke="#0cc0df" stroke-width="20" stroke-opacity="1" stroke-miterlimit="4"/></g></g><g clip-path="url(#968e5492a5)"><path fill="#ff9e01" d="M 257.847656 100.449219 L 245.144531 153.320312 C 245.140625 153.828125 245.042969 154.316406 244.847656 154.785156 C 244.652344 155.253906 244.378906 155.667969 244.019531 156.027344 C 243.660156 156.386719 243.246094 156.664062 242.78125 156.859375 C 242.3125 157.054688 241.824219 157.152344 241.316406 157.15625 L 155.710938 157.777344 C 155.203125 157.777344 154.71875 157.675781 154.25 157.480469 C 153.78125 157.285156 153.367188 157.007812 153.007812 156.652344 C 152.652344 156.292969 152.375 155.878906 152.179688 155.410156 C 151.984375 154.941406 151.886719 154.449219 151.886719 153.941406 L 151.886719 100.441406 C 151.882812 100.335938 151.886719 100.230469 151.898438 100.128906 L 150.742188 89.777344 L 138.085938 89.777344 C 137.738281 89.761719 137.398438 89.714844 137.058594 89.636719 C 136.722656 89.554688 136.394531 89.445312 136.078125 89.300781 C 135.761719 89.160156 135.460938 88.988281 135.179688 88.789062 C 134.894531 88.585938 134.632812 88.363281 134.390625 88.109375 C 134.152344 87.859375 133.9375 87.589844 133.75 87.296875 C 133.558594 87.003906 133.402344 86.699219 133.273438 86.375 C 133.140625 86.054688 133.042969 85.722656 132.976562 85.378906 C 132.914062 85.039062 132.878906 84.695312 132.878906 84.347656 C 132.878906 84 132.914062 83.652344 132.976562 83.3125 C 133.042969 82.972656 133.140625 82.640625 133.273438 82.316406 C 133.402344 81.992188 133.558594 81.6875 133.75 81.394531 C 133.9375 81.101562 134.152344 80.832031 134.390625 80.582031 C 134.632812 80.328125 134.894531 80.105469 135.179688 79.902344 C 135.460938 79.703125 135.761719 79.53125 136.078125 79.390625 C 136.394531 79.246094 136.722656 79.136719 137.058594 79.054688 C 137.398438 78.976562 137.738281 78.929688 138.085938 78.914062 L 160.425781 78.914062 C 160.425781 78.933594 160.425781 78.953125 160.425781 78.972656 L 161.632812 89.78125 L 162.398438 96.613281 L 254.023438 96.613281 C 254.527344 96.613281 255.015625 96.710938 255.484375 96.90625 C 255.953125 97.101562 256.367188 97.378906 256.722656 97.738281 C 257.082031 98.097656 257.359375 98.511719 257.554688 98.984375 C 257.75 99.453125 257.847656 99.941406 257.847656 100.449219 Z M 257.847656 100.449219 " fill-opacity="1" fill-rule="nonzero"/></g><g clip-path="url(#09dfd5912d)"><path fill="#ff7312" d="M 178.523438 175.164062 C 178.523438 176.082031 178.433594 176.988281 178.253906 177.890625 C 178.074219 178.789062 177.8125 179.664062 177.460938 180.511719 C 177.109375 181.359375 176.679688 182.164062 176.171875 182.925781 C 175.664062 183.6875 175.085938 184.394531 174.4375 185.042969 C 173.789062 185.691406 173.085938 186.269531 172.324219 186.78125 C 171.5625 187.289062 170.761719 187.71875 169.914062 188.070312 C 169.070312 188.421875 168.195312 188.6875 167.300781 188.867188 C 166.402344 189.046875 165.496094 189.136719 164.578125 189.136719 C 163.664062 189.136719 162.757812 189.046875 161.859375 188.867188 C 160.960938 188.6875 160.089844 188.421875 159.242188 188.070312 C 158.398438 187.71875 157.59375 187.289062 156.832031 186.78125 C 156.070312 186.269531 155.367188 185.691406 154.71875 185.042969 C 154.070312 184.394531 153.492188 183.6875 152.984375 182.925781 C 152.476562 182.164062 152.046875 181.359375 151.695312 180.511719 C 151.347656 179.664062 151.082031 178.789062 150.902344 177.890625 C 150.726562 176.988281 150.636719 176.082031 150.636719 175.164062 C 150.636719 174.246094 150.726562 173.339844 150.902344 172.4375 C 151.082031 171.539062 151.347656 170.664062 151.695312 169.816406 C 152.046875 168.96875 152.476562 168.164062 152.984375 167.402344 C 153.492188 166.640625 154.070312 165.933594 154.71875 165.285156 C 155.367188 164.636719 156.070312 164.058594 156.832031 163.546875 C 157.59375 163.039062 158.398438 162.609375 159.242188 162.257812 C 160.089844 161.90625 160.960938 161.640625 161.859375 161.460938 C 162.757812 161.28125 163.664062 161.191406 164.578125 161.191406 C 165.496094 161.191406 166.402344 161.28125 167.300781 161.460938 C 168.195312 161.640625 169.070312 161.90625 169.914062 162.257812 C 170.761719 162.609375 171.5625 163.039062 172.324219 163.546875 C 173.085938 164.058594 173.789062 164.636719 174.4375 165.285156 C 175.085938 165.933594 175.664062 166.640625 176.171875 167.402344 C 176.679688 168.164062 177.109375 168.96875 177.460938 169.816406 C 177.8125 170.664062 178.074219 171.539062 178.253906 172.4375 C 178.433594 173.339844 178.523438 174.246094 178.523438 175.164062 Z M 178.523438 175.164062 " fill-opacity="1" fill-rule="nonzero"/></g><g clip-path="url(#719e2c068e)"><path fill="#ff7312" d="M 217.875 175.164062 C 217.875 176.082031 217.785156 176.988281 217.605469 177.890625 C 217.429688 178.789062 217.164062 179.664062 216.8125 180.511719 C 216.464844 181.359375 216.035156 182.164062 215.523438 182.925781 C 215.015625 183.6875 214.4375 184.394531 213.792969 185.042969 C 213.144531 185.691406 212.4375 186.269531 211.679688 186.78125 C 210.917969 187.289062 210.113281 187.71875 209.265625 188.070312 C 208.421875 188.421875 207.550781 188.6875 206.652344 188.867188 C 205.753906 189.046875 204.847656 189.136719 203.929688 189.136719 C 203.015625 189.136719 202.109375 189.046875 201.210938 188.867188 C 200.3125 188.6875 199.441406 188.421875 198.59375 188.070312 C 197.75 187.71875 196.945312 187.289062 196.183594 186.78125 C 195.425781 186.269531 194.71875 185.691406 194.070312 185.042969 C 193.425781 184.394531 192.847656 183.6875 192.339844 182.925781 C 191.828125 182.164062 191.398438 181.359375 191.050781 180.511719 C 190.699219 179.664062 190.433594 178.789062 190.257812 177.890625 C 190.078125 176.988281 189.988281 176.082031 189.988281 175.164062 C 189.988281 174.246094 190.078125 173.339844 190.257812 172.4375 C 190.433594 171.539062 190.699219 170.664062 191.050781 169.816406 C 191.398438 168.96875 191.828125 168.164062 192.339844 167.402344 C 192.847656 166.640625 193.425781 165.933594 194.070312 165.285156 C 194.71875 164.636719 195.425781 164.058594 196.183594 163.546875 C 196.945312 163.039062 197.75 162.609375 198.597656 162.257812 C 199.441406 161.90625 200.3125 161.640625 201.210938 161.460938 C 202.109375 161.28125 203.015625 161.191406 203.929688 161.191406 C 204.847656 161.191406 205.753906 161.28125 206.652344 161.460938 C 207.550781 161.640625 208.421875 161.90625 209.265625 162.257812 C 210.113281 162.609375 210.917969 163.039062 211.679688 163.546875 C 212.4375 164.058594 213.144531 164.636719 213.792969 165.285156 C 214.4375 165.933594 215.015625 166.640625 215.523438 167.402344 C 216.035156 168.164062 216.464844 168.96875 216.8125 169.816406 C 217.164062 170.664062 217.429688 171.539062 217.605469 172.4375 C 217.785156 173.339844 217.875 174.246094 217.875 175.164062 Z M 217.875 175.164062 " fill-opacity="1" fill-rule="nonzero"/></g><path fill="#ff9e01" d="M 110.664062 101.269531 L 142.578125 101.269531 C 143.070312 101.269531 143.546875 101.363281 144 101.554688 C 144.457031 101.742188 144.859375 102.011719 145.207031 102.359375 C 145.554688 102.710938 145.824219 103.113281 146.015625 103.570312 C 146.203125 104.027344 146.296875 104.5 146.296875 104.996094 L 146.296875 105.925781 C 146.296875 106.421875 146.203125 106.894531 146.015625 107.351562 C 145.824219 107.808594 145.554688 108.210938 145.207031 108.5625 C 144.859375 108.910156 144.457031 109.179688 144 109.367188 C 143.546875 109.558594 143.070312 109.652344 142.578125 109.652344 L 110.664062 109.652344 C 110.167969 109.652344 109.695312 109.558594 109.238281 109.367188 C 108.785156 109.179688 108.382812 108.910156 108.03125 108.5625 C 107.683594 108.210938 107.414062 107.808594 107.226562 107.351562 C 107.039062 106.894531 106.945312 106.421875 106.945312 105.925781 L 106.945312 104.996094 C 106.945312 104.5 107.039062 104.027344 107.226562 103.570312 C 107.414062 103.113281 107.683594 102.710938 108.03125 102.359375 C 108.382812 102.011719 108.785156 101.742188 109.238281 101.554688 C 109.695312 101.363281 110.167969 101.269531 110.664062 101.269531 Z M 110.664062 101.269531 " fill-opacity="1" fill-rule="nonzero"/><path fill="#ff9e01" d="M 110.664062 153.429688 L 142.578125 153.429688 C 143.070312 153.429688 143.546875 153.523438 144 153.714844 C 144.457031 153.902344 144.859375 154.171875 145.207031 154.519531 C 145.554688 154.871094 145.824219 155.273438 146.015625 155.730469 C 146.203125 156.1875 146.296875 156.660156 146.296875 157.15625 L 146.296875 158.085938 C 146.296875 158.582031 146.203125 159.054688 146.015625 159.511719 C 145.824219 159.96875 145.554688 160.371094 145.207031 160.722656 C 144.859375 161.070312 144.457031 161.339844 144 161.527344 C 143.546875 161.71875 143.070312 161.8125 142.578125 161.8125 L 110.664062 161.8125 C 110.167969 161.8125 109.695312 161.71875 109.238281 161.527344 C 108.785156 161.339844 108.382812 161.070312 108.03125 160.722656 C 107.683594 160.371094 107.414062 159.96875 107.226562 159.511719 C 107.039062 159.054688 106.945312 158.582031 106.945312 158.085938 L 106.945312 157.15625 C 106.945312 156.660156 107.039062 156.1875 107.226562 155.730469 C 107.414062 155.273438 107.683594 154.871094 108.03125 154.519531 C 108.382812 154.171875 108.785156 153.902344 109.238281 153.714844 C 109.695312 153.523438 110.167969 153.429688 110.664062 153.429688 Z M 110.664062 153.429688 " fill-opacity="1" fill-rule="nonzero"/><g clip-path="url(#eb1aea03d2)"><path fill="#ff9e01" d="M 78.28125 126.730469 L 142.113281 126.730469 C 142.386719 126.730469 142.660156 126.753906 142.929688 126.808594 C 143.199219 126.863281 143.460938 126.941406 143.714844 127.046875 C 143.96875 127.152344 144.210938 127.28125 144.4375 127.433594 C 144.667969 127.589844 144.878906 127.761719 145.070312 127.957031 C 145.265625 128.152344 145.4375 128.363281 145.59375 128.589844 C 145.746094 128.820312 145.875 129.0625 145.976562 129.316406 C 146.082031 129.570312 146.164062 129.832031 146.214844 130.101562 C 146.269531 130.371094 146.296875 130.644531 146.296875 130.921875 C 146.296875 131.195312 146.269531 131.46875 146.214844 131.738281 C 146.164062 132.007812 146.082031 132.269531 145.976562 132.523438 C 145.875 132.777344 145.746094 133.019531 145.59375 133.25 C 145.4375 133.476562 145.265625 133.6875 145.070312 133.882812 C 144.878906 134.078125 144.667969 134.253906 144.4375 134.40625 C 144.210938 134.558594 143.96875 134.6875 143.714844 134.792969 C 143.460938 134.898438 143.199219 134.976562 142.929688 135.03125 C 142.660156 135.085938 142.386719 135.113281 142.113281 135.113281 L 78.28125 135.113281 C 78.007812 135.113281 77.734375 135.085938 77.464844 135.03125 C 77.195312 134.976562 76.933594 134.898438 76.679688 134.792969 C 76.425781 134.6875 76.1875 134.558594 75.957031 134.40625 C 75.730469 134.253906 75.519531 134.078125 75.324219 133.882812 C 75.128906 133.6875 74.957031 133.476562 74.804688 133.25 C 74.652344 133.019531 74.523438 132.777344 74.417969 132.523438 C 74.3125 132.269531 74.230469 132.007812 74.179688 131.738281 C 74.125 131.46875 74.097656 131.195312 74.097656 130.921875 C 74.097656 130.644531 74.125 130.371094 74.179688 130.101562 C 74.230469 129.832031 74.3125 129.570312 74.417969 129.316406 C 74.523438 129.0625 74.652344 128.820312 74.804688 128.589844 C 74.957031 128.363281 75.128906 128.152344 75.324219 127.957031 C 75.519531 127.761719 75.730469 127.589844 75.957031 127.433594 C 76.1875 127.28125 76.425781 127.152344 76.679688 127.046875 C 76.933594 126.941406 77.195312 126.863281 77.464844 126.808594 C 77.734375 126.753906 78.007812 126.730469 78.28125 126.730469 Z M 78.28125 126.730469 " fill-opacity="1" fill-rule="nonzero"/></g><g fill="#ef7132" fill-opacity="1"><g transform="translate(66.898957, 244.944485)"><g><path d="M 11.8125 -18.515625 L 14.25 -18.515625 C 16.53125 -18.515625 18.238281 -18.960938 19.375 -19.859375 C 20.507812 -20.765625 21.078125 -22.078125 21.078125 -23.796875 C 21.078125 -25.535156 20.597656 -26.816406 19.640625 -27.640625 C 18.691406 -28.472656 17.207031 -28.890625 15.1875 -28.890625 L 11.8125 -28.890625 Z M 28.5625 -24.0625 C 28.5625 -20.300781 27.382812 -17.421875 25.03125 -15.421875 C 22.675781 -13.429688 19.332031 -12.4375 15 -12.4375 L 11.8125 -12.4375 L 11.8125 0 L 4.40625 0 L 4.40625 -34.96875 L 15.578125 -34.96875 C 19.816406 -34.96875 23.039062 -34.050781 25.25 -32.21875 C 27.457031 -30.394531 28.5625 -27.675781 28.5625 -24.0625 Z M 28.5625 -24.0625 "/></g></g></g><g fill="#ef7132" fill-opacity="1"><g transform="translate(97.657333, 244.944485)"><g><path d="M 36.140625 -17.53125 C 36.140625 -11.738281 34.703125 -7.285156 31.828125 -4.171875 C 28.960938 -1.066406 24.851562 0.484375 19.5 0.484375 C 14.132812 0.484375 10.015625 -1.066406 7.140625 -4.171875 C 4.273438 -7.285156 2.84375 -11.753906 2.84375 -17.578125 C 2.84375 -23.398438 4.28125 -27.84375 7.15625 -30.90625 C 10.039062 -33.976562 14.171875 -35.515625 19.546875 -35.515625 C 24.910156 -35.515625 29.015625 -33.96875 31.859375 -30.875 C 34.710938 -27.78125 36.140625 -23.332031 36.140625 -17.53125 Z M 10.625 -17.53125 C 10.625 -13.625 11.363281 -10.679688 12.84375 -8.703125 C 14.320312 -6.722656 16.539062 -5.734375 19.5 -5.734375 C 25.40625 -5.734375 28.359375 -9.664062 28.359375 -17.53125 C 28.359375 -25.40625 25.421875 -29.34375 19.546875 -29.34375 C 16.585938 -29.34375 14.359375 -28.347656 12.859375 -26.359375 C 11.367188 -24.378906 10.625 -21.4375 10.625 -17.53125 Z M 10.625 -17.53125 "/></g></g></g><g fill="#ef7132" fill-opacity="1"><g transform="translate(136.643455, 244.944485)"><g><path d="M 11.8125 -18.515625 L 14.25 -18.515625 C 16.53125 -18.515625 18.238281 -18.960938 19.375 -19.859375 C 20.507812 -20.765625 21.078125 -22.078125 21.078125 -23.796875 C 21.078125 -25.535156 20.597656 -26.816406 19.640625 -27.640625 C 18.691406 -28.472656 17.207031 -28.890625 15.1875 -28.890625 L 11.8125 -28.890625 Z M 28.5625 -24.0625 C 28.5625 -20.300781 27.382812 -17.421875 25.03125 -15.421875 C 22.675781 -13.429688 19.332031 -12.4375 15 -12.4375 L 11.8125 -12.4375 L 11.8125 0 L 4.40625 0 L 4.40625 -34.96875 L 15.578125 -34.96875 C 19.816406 -34.96875 23.039062 -34.050781 25.25 -32.21875 C 27.457031 -30.394531 28.5625 -27.675781 28.5625 -24.0625 Z M 28.5625 -24.0625 "/></g></g></g><g fill="#edf0e8" fill-opacity="1"><g transform="translate(167.406863, 244.944485)"><g><path d="M 19.203125 0 L 10.78125 -27.4375 L 10.578125 -27.4375 C 10.878906 -21.851562 11.03125 -18.128906 11.03125 -16.265625 L 11.03125 0 L 4.40625 0 L 4.40625 -34.96875 L 14.5 -34.96875 L 22.765625 -8.234375 L 22.90625 -8.234375 L 31.6875 -34.96875 L 41.78125 -34.96875 L 41.78125 0 L 34.875 0 L 34.875 -16.546875 C 34.875 -17.328125 34.882812 -18.226562 34.90625 -19.25 C 34.925781 -20.269531 35.035156 -22.984375 35.234375 -27.390625 L 35.015625 -27.390625 L 26 0 Z M 19.203125 0 "/></g></g></g><g fill="#edf0e8" fill-opacity="1"><g transform="translate(213.592269, 244.944485)"><g><path d="M 25.8125 0 L 23.265625 -8.328125 L 10.53125 -8.328125 L 7.984375 0 L 0 0 L 12.34375 -35.109375 L 21.40625 -35.109375 L 33.796875 0 Z M 21.5 -14.546875 C 19.15625 -22.085938 17.832031 -26.351562 17.53125 -27.34375 C 17.238281 -28.332031 17.03125 -29.113281 16.90625 -29.6875 C 16.382812 -27.644531 14.878906 -22.597656 12.390625 -14.546875 Z M 21.5 -14.546875 "/></g></g></g><g fill="#edf0e8" fill-opacity="1"><g transform="translate(247.388221, 244.944485)"><g><path d="M 11.8125 -19.453125 L 14.203125 -19.453125 C 16.546875 -19.453125 18.273438 -19.84375 19.390625 -20.625 C 20.515625 -21.40625 21.078125 -22.628906 21.078125 -24.296875 C 21.078125 -25.953125 20.503906 -27.128906 19.359375 -27.828125 C 18.222656 -28.535156 16.457031 -28.890625 14.0625 -28.890625 L 11.8125 -28.890625 Z M 11.8125 -13.421875 L 11.8125 0 L 4.40625 0 L 4.40625 -34.96875 L 14.59375 -34.96875 C 19.34375 -34.96875 22.859375 -34.101562 25.140625 -32.375 C 27.421875 -30.644531 28.5625 -28.019531 28.5625 -24.5 C 28.5625 -22.4375 27.992188 -20.601562 26.859375 -19 C 25.722656 -17.394531 24.117188 -16.140625 22.046875 -15.234375 C 27.316406 -7.367188 30.75 -2.289062 32.34375 0 L 24.109375 0 L 15.765625 -13.421875 Z M 11.8125 -13.421875 "/></g></g></g><g fill="#edf0e8" fill-opacity="1"><g transform="translate(279.725176, 244.944485)"><g><path d="M 17.890625 0 L 10.46875 0 L 10.46875 -28.796875 L 0.984375 -28.796875 L 0.984375 -34.96875 L 27.390625 -34.96875 L 27.390625 -28.796875 L 17.890625 -28.796875 Z M 17.890625 0 "/></g></g></g><g fill="#0cc0df" fill-opacity="1"><g transform="translate(121.576824, 274.944372)"><g><path d="M 7.203125 0 L 4.046875 -10.296875 L 3.96875 -10.296875 C 4.082031 -8.203125 4.140625 -6.800781 4.140625 -6.09375 L 4.140625 0 L 1.65625 0 L 1.65625 -13.125 L 5.4375 -13.125 L 8.546875 -3.09375 L 8.59375 -3.09375 L 11.890625 -13.125 L 15.671875 -13.125 L 15.671875 0 L 13.078125 0 L 13.078125 -6.203125 C 13.078125 -6.492188 13.082031 -6.832031 13.09375 -7.21875 C 13.101562 -7.601562 13.144531 -8.617188 13.21875 -10.265625 L 13.140625 -10.265625 L 9.75 0 Z M 7.203125 0 "/></g></g><g transform="translate(138.89804, 274.944372)"><g><path d="M 9.6875 0 L 8.734375 -3.125 L 3.953125 -3.125 L 3 0 L 0 0 L 4.625 -13.171875 L 8.03125 -13.171875 L 12.671875 0 Z M 8.0625 -5.453125 C 7.1875 -8.285156 6.691406 -9.882812 6.578125 -10.25 C 6.472656 -10.625 6.394531 -10.921875 6.34375 -11.140625 C 6.144531 -10.367188 5.578125 -8.472656 4.640625 -5.453125 Z M 8.0625 -5.453125 "/></g></g><g transform="translate(151.572758, 274.944372)"><g><path d="M 4.4375 -7.296875 L 5.328125 -7.296875 C 6.203125 -7.296875 6.847656 -7.441406 7.265625 -7.734375 C 7.691406 -8.023438 7.90625 -8.484375 7.90625 -9.109375 C 7.90625 -9.734375 7.691406 -10.175781 7.265625 -10.4375 C 6.835938 -10.707031 6.175781 -10.84375 5.28125 -10.84375 L 4.4375 -10.84375 Z M 4.4375 -5.03125 L 4.4375 0 L 1.65625 0 L 1.65625 -13.125 L 5.46875 -13.125 C 7.25 -13.125 8.566406 -12.796875 9.421875 -12.140625 C 10.285156 -11.492188 10.71875 -10.507812 10.71875 -9.1875 C 10.71875 -8.414062 10.503906 -7.726562 10.078125 -7.125 C 9.648438 -6.53125 9.046875 -6.0625 8.265625 -5.71875 C 10.242188 -2.769531 11.53125 -0.863281 12.125 0 L 9.046875 0 L 5.90625 -5.03125 Z M 4.4375 -5.03125 "/></g></g><g transform="translate(163.7003, 274.944372)"><g><path d="M 12.203125 0 L 9.046875 0 L 5.609375 -5.53125 L 4.4375 -4.6875 L 4.4375 0 L 1.65625 0 L 1.65625 -13.125 L 4.4375 -13.125 L 4.4375 -7.109375 L 5.53125 -8.65625 L 9.078125 -13.125 L 12.171875 -13.125 L 7.59375 -7.3125 Z M 12.203125 0 "/></g></g><g transform="translate(175.899603, 274.944372)"><g><path d="M 9.203125 0 L 1.65625 0 L 1.65625 -13.125 L 9.203125 -13.125 L 9.203125 -10.84375 L 4.4375 -10.84375 L 4.4375 -7.953125 L 8.875 -7.953125 L 8.875 -5.671875 L 4.4375 -5.671875 L 4.4375 -2.296875 L 9.203125 -2.296875 Z M 9.203125 0 "/></g></g><g transform="translate(186.18828, 274.944372)"><g><path d="M 6.71875 0 L 3.9375 0 L 3.9375 -10.796875 L 0.375 -10.796875 L 0.375 -13.125 L 10.265625 -13.125 L 10.265625 -10.796875 L 6.71875 -10.796875 Z M 6.71875 0 "/></g></g><g transform="translate(196.82679, 274.944372)"><g><path d="M 4.4375 -6.9375 L 5.34375 -6.9375 C 6.195312 -6.9375 6.835938 -7.101562 7.265625 -7.4375 C 7.691406 -7.78125 7.90625 -8.273438 7.90625 -8.921875 C 7.90625 -9.578125 7.726562 -10.0625 7.375 -10.375 C 7.019531 -10.6875 6.460938 -10.84375 5.703125 -10.84375 L 4.4375 -10.84375 Z M 10.71875 -9.03125 C 10.71875 -7.613281 10.273438 -6.53125 9.390625 -5.78125 C 8.503906 -5.039062 7.25 -4.671875 5.625 -4.671875 L 4.4375 -4.671875 L 4.4375 0 L 1.65625 0 L 1.65625 -13.125 L 5.84375 -13.125 C 7.4375 -13.125 8.644531 -12.78125 9.46875 -12.09375 C 10.300781 -11.40625 10.71875 -10.382812 10.71875 -9.03125 Z M 10.71875 -9.03125 "/></g></g><g transform="translate(208.362308, 274.944372)"><g><path d="M 1.65625 0 L 1.65625 -13.125 L 4.4375 -13.125 L 4.4375 -2.296875 L 9.75 -2.296875 L 9.75 0 Z M 1.65625 0 "/></g></g><g transform="translate(218.740685, 274.944372)"><g><path d="M 9.6875 0 L 8.734375 -3.125 L 3.953125 -3.125 L 3 0 L 0 0 L 4.625 -13.171875 L 8.03125 -13.171875 L 12.671875 0 Z M 8.0625 -5.453125 C 7.1875 -8.285156 6.691406 -9.882812 6.578125 -10.25 C 6.472656 -10.625 6.394531 -10.921875 6.34375 -11.140625 C 6.144531 -10.367188 5.578125 -8.472656 4.640625 -5.453125 Z M 8.0625 -5.453125 "/></g></g><g transform="translate(231.415403, 274.944372)"><g><path d="M 7.21875 -10.984375 C 6.175781 -10.984375 5.367188 -10.585938 4.796875 -9.796875 C 4.222656 -9.015625 3.9375 -7.921875 3.9375 -6.515625 C 3.9375 -3.597656 5.03125 -2.140625 7.21875 -2.140625 C 8.144531 -2.140625 9.257812 -2.367188 10.5625 -2.828125 L 10.5625 -0.5 C 9.488281 -0.0507812 8.289062 0.171875 6.96875 0.171875 C 5.050781 0.171875 3.585938 -0.40625 2.578125 -1.5625 C 1.566406 -2.71875 1.0625 -4.378906 1.0625 -6.546875 C 1.0625 -7.910156 1.3125 -9.101562 1.8125 -10.125 C 2.3125 -11.144531 3.023438 -11.929688 3.953125 -12.484375 C 4.878906 -13.035156 5.96875 -13.3125 7.21875 -13.3125 C 8.5 -13.3125 9.78125 -13 11.0625 -12.375 L 10.171875 -10.125 C 9.679688 -10.351562 9.1875 -10.550781 8.6875 -10.71875 C 8.1875 -10.894531 7.695312 -10.984375 7.21875 -10.984375 Z M 7.21875 -10.984375 "/></g></g><g transform="translate(243.121351, 274.944372)"><g><path d="M 9.203125 0 L 1.65625 0 L 1.65625 -13.125 L 9.203125 -13.125 L 9.203125 -10.84375 L 4.4375 -10.84375 L 4.4375 -7.953125 L 8.875 -7.953125 L 8.875 -5.671875 L 4.4375 -5.671875 L 4.4375 -2.296875 L 9.203125 -2.296875 Z M 9.203125 0 "/></g></g></g></svg>